<svg width="14" height="14" viewBox="0 0 14 14" fill="none" xmlns="http://www.w3.org/2000/svg">
<path d="M11.9583 4.24471L6.99998 6.99934M6.99998 6.99934L2.04165 4.24471M6.99998 6.99934L7 12.541M12.25 9.36685V4.63187C12.25 4.43199 12.25 4.33205 12.2206 4.24292C12.1945 4.16407 12.1519 4.09169 12.0956 4.03062C12.032 3.96159 11.9447 3.91305 11.7699 3.81599L7.45327 1.41784C7.28783 1.32593 7.20511 1.27998 7.11751 1.26196C7.03998 1.24601 6.96002 1.24601 6.88249 1.26196C6.79489 1.27998 6.71217 1.32593 6.54673 1.41784L2.23007 3.81599C2.05534 3.91306 1.96798 3.96159 1.90437 4.03062C1.84809 4.09169 1.8055 4.16407 1.77945 4.24292C1.75 4.33206 1.75 4.43199 1.75 4.63187V9.36685C1.75 9.56672 1.75 9.66666 1.77945 9.75579C1.8055 9.83465 1.84809 9.90703 1.90437 9.9681C1.96798 10.0371 2.05534 10.0857 2.23007 10.1827L6.54673 12.5809C6.71217 12.6728 6.79489 12.7187 6.88249 12.7368C6.96002 12.7527 7.03998 12.7527 7.11751 12.7368C7.20511 12.7187 7.28783 12.6728 7.45327 12.5809L11.7699 10.1827C11.9447 10.0857 12.032 10.0371 12.0956 9.9681C12.1519 9.90703 12.1945 9.83465 12.2206 9.75579C12.25 9.66666 12.25 9.56672 12.25 9.36685Z" stroke="black" stroke-linecap="round" stroke-linejoin="round"/>
</svg>
