<svg width="14" height="14" viewBox="0 0 14 14" fill="none" xmlns="http://www.w3.org/2000/svg">
<g clip-path="url(#clip0_898_2628)">
<path d="M4.66699 8.16797C4.66699 8.16797 5.54199 9.33464 7.00033 9.33464C8.45866 9.33464 9.33366 8.16797 9.33366 8.16797M8.75033 5.2513H8.75616M4.66699 5.2513H5.83366M12.8337 7.0013C12.8337 10.223 10.222 12.8346 7.00033 12.8346C3.77866 12.8346 1.16699 10.223 1.16699 7.0013C1.16699 3.77964 3.77866 1.16797 7.00033 1.16797C10.222 1.16797 12.8337 3.77964 12.8337 7.0013ZM9.04199 5.2513C9.04199 5.41238 8.91141 5.54297 8.75033 5.54297C8.58924 5.54297 8.45866 5.41238 8.45866 5.2513C8.45866 5.09022 8.58924 4.95964 8.75033 4.95964C8.91141 4.95964 9.04199 5.09022 9.04199 5.2513Z" stroke="#808080" stroke-linecap="round" stroke-linejoin="round"/>
</g>
<defs>
<clipPath id="clip0_898_2628">
<rect width="14" height="14" fill="white"/>
</clipPath>
</defs>
</svg>
